<svg width="1533" height="127" viewBox="0 0 1533 127" fill="none" xmlns="http://www.w3.org/2000/svg">
<g opacity="0.15" filter="url(#filter0_f_1_98)">
<mask id="path-1-outside-1_1_98" maskUnits="userSpaceOnUse" x="5" y="5" width="1523" height="117" fill="black">
<rect fill="white" x="5" y="5" width="1523" height="117"/>
<path d="M80.3216 56.4738C87.9074 56.4738 94.4129 56.7845 99.8382 57.4059C105.263 58.0272 109.825 58.9593 113.521 60.202C117.266 61.3969 120.243 62.9025 122.452 64.7188C124.66 66.5351 126.364 68.6143 127.565 70.9564C128.765 73.2506 129.533 75.8317 129.869 78.6995C130.253 81.5673 130.445 84.6741 130.445 88.02C130.445 91.3658 130.133 94.5204 129.509 97.4838C128.933 100.399 127.877 103.076 126.34 105.514C124.804 107.951 122.716 110.126 120.075 112.038C117.434 113.95 114.074 115.575 109.993 116.913C105.912 118.252 100.99 119.255 95.2291 119.925C89.5158 120.642 82.8182 121 75.1364 121H56.7C49.7864 121 43.7369 120.737 38.5517 120.211C33.3665 119.686 28.9014 118.897 25.1565 117.845C21.4116 116.746 18.3149 115.384 15.8663 113.759C13.4178 112.086 11.4493 110.15 9.96094 107.951C8.5206 105.705 7.51236 103.172 6.93622 100.352C6.36009 97.4838 6.07202 94.3292 6.07202 90.8878H19.8993C19.8993 95.1895 20.5234 98.5592 21.7717 100.997C23.02 103.435 25.0845 105.275 27.9652 106.517C30.8459 107.712 34.6148 108.477 39.2719 108.812C43.977 109.099 49.7864 109.242 56.7 109.242H75.1364C83.2023 109.242 89.8999 108.86 95.2291 108.095C100.558 107.33 104.807 106.111 107.976 104.438C111.145 102.765 113.377 100.591 114.674 97.914C115.97 95.1895 116.618 91.8915 116.618 88.02C116.618 84.1484 116.162 80.9221 115.25 78.341C114.386 75.76 112.633 73.7047 109.993 72.1752C107.4 70.6457 103.727 69.5702 98.974 68.9489C94.2209 68.2797 88.0034 67.9451 80.3216 67.9451L61.3091 67.9451C52.8591 67.9451 45.6094 67.6345 39.5599 67.0131C33.5585 66.3917 28.5173 65.5075 24.4364 64.3603C20.3554 63.1654 17.0906 61.7076 14.642 59.9869C12.1935 58.2184 10.321 56.2109 9.02472 53.9645C7.77642 51.718 6.96023 49.2325 6.57614 46.5081C6.19205 43.7359 6 40.7485 6 37.5461C6 34.2003 6.28807 31.0935 6.8642 28.2257C7.48835 25.3579 8.61662 22.7768 10.249 20.4825C11.8814 18.1405 14.1139 16.0613 16.9466 14.245C19.7793 12.4287 23.4041 10.9231 27.8212 9.72818C32.2862 8.48545 37.6395 7.55341 43.881 6.93204C50.1224 6.31068 57.4682 6 65.9182 6L79.7455 6C86.6591 6 92.7085 6.26288 97.8938 6.78865C103.079 7.26663 107.544 8.05528 111.289 9.15461C115.034 10.2062 118.131 11.5445 120.579 13.1696C123.076 14.7469 125.044 16.6588 126.485 18.9052C127.973 21.1039 129.005 23.6133 129.581 26.4333C130.157 29.2533 130.445 32.384 130.445 35.8254L116.618 35.8254C116.618 31.5237 115.994 28.154 114.746 25.7163C113.497 23.2787 111.433 21.4624 108.552 20.2675C105.672 19.0247 101.879 18.26 97.1736 17.9732C92.4685 17.6386 86.6591 17.4713 79.7455 17.4713L65.9182 17.4713C56.7 17.4713 49.1142 17.8059 43.1608 18.4751C37.2074 19.0964 32.5023 20.1719 29.0455 21.7014C25.5886 23.2309 23.1881 25.2862 21.8437 27.8672C20.4994 30.4483 19.8273 33.6746 19.8273 37.5461C19.8273 39.936 19.9953 42.063 20.3314 43.9271C20.6675 45.7911 21.3396 47.4401 22.3479 48.8741C23.4041 50.2602 24.8685 51.4312 26.7409 52.3872C28.6134 53.3431 31.0859 54.1318 34.1587 54.7531C37.2314 55.3745 40.9763 55.8286 45.3933 56.1153C49.8584 56.3543 55.1636 56.4738 61.3091 56.4738L80.3216 56.4738Z"/>
<path d="M268.718 8.29426L282.545 8.29426V118.419H268.718V67.9451L167.318 67.9451L167.318 118.419H153.491L153.491 8.29426L167.318 8.29426V56.4738L268.718 56.4738V8.29426Z"/>
<path d="M418.514 93.182L330.941 93.182L317.114 118.419L300.982 118.419L365.509 8.29426L383.945 8.29426L448.473 118.419H432.341L418.514 93.182ZM411.6 81.7107L374.727 17.4713L337.855 81.7107L411.6 81.7107Z"/>
<path d="M549.801 106.948C555.898 106.948 561.059 106.78 565.284 106.446C569.509 106.111 572.99 105.442 575.727 104.438C578.464 103.387 580.576 101.881 582.064 99.9214C583.553 97.9618 584.633 95.3807 585.305 92.1783C586.025 88.9281 586.433 84.9609 586.529 80.2768C586.673 75.5449 586.745 69.9048 586.745 63.3566C586.745 56.8084 586.673 51.1922 586.529 46.5081C586.433 41.7762 586.025 37.809 585.305 34.6066C584.633 31.3564 583.553 28.7515 582.064 26.7918C580.576 24.8321 578.464 23.3504 575.727 22.3466C572.99 21.2951 569.509 20.602 565.284 20.2675C561.107 19.9329 555.946 19.7656 549.801 19.7656L480.736 19.7656V106.948L549.801 106.948ZM466.909 118.419V8.29426L549.801 8.29426C558.251 8.29426 565.356 8.79613 571.118 9.79988C576.927 10.7558 581.704 12.2375 585.449 14.245C589.242 16.2525 592.147 18.7618 594.163 21.7731C596.228 24.7843 597.716 28.3452 598.628 32.4557C599.589 36.5185 600.141 41.1309 600.285 46.293C600.477 51.4073 600.573 57.0952 600.573 63.3566C600.573 69.618 600.477 75.3298 600.285 80.4919C600.141 85.6062 599.589 90.2186 598.628 94.3292C597.716 98.3919 596.228 101.929 594.163 104.94C592.147 107.951 589.242 110.461 585.449 112.468C581.704 114.476 576.927 115.981 571.118 116.985C565.356 117.941 558.251 118.419 549.801 118.419L466.909 118.419Z"/>
<path d="M711.263 6C719.713 6 726.819 6.52577 732.58 7.57731C738.389 8.58105 743.167 10.1345 746.911 12.2375C750.656 14.2928 753.537 16.8978 755.553 20.0524C757.57 23.207 759.034 26.9113 759.946 31.1652C760.907 35.4192 761.459 40.2228 761.603 45.5761C761.795 50.9293 761.891 56.8562 761.891 63.3566C761.891 69.857 761.795 75.7839 761.603 81.1372C761.459 86.4904 760.907 91.2941 759.946 95.548C759.034 99.8019 757.57 103.506 755.553 106.661C753.537 109.815 750.656 112.444 746.911 114.547C743.167 116.603 738.389 118.132 732.58 119.136C726.819 120.187 719.713 120.713 711.263 120.713H669.637C661.187 120.713 654.057 120.187 648.248 119.136C642.487 118.132 637.734 116.603 633.989 114.547C630.244 112.444 627.339 109.815 625.275 106.661C623.258 103.506 621.77 99.8019 620.81 95.548C619.897 91.2941 619.369 86.4904 619.225 81.1372C619.081 75.7839 619.009 69.857 619.009 63.3566C619.009 56.8562 619.081 50.9293 619.225 45.5761C619.369 40.2228 619.897 35.4192 620.81 31.1652C621.77 26.9113 623.258 23.207 625.275 20.0524C627.339 16.8978 630.244 14.2928 633.989 12.2375C637.734 10.1345 642.487 8.58105 648.248 7.57731C654.057 6.52577 661.187 6 669.637 6L711.263 6ZM711.263 109.242C717.36 109.242 722.498 109.075 726.675 108.74C730.9 108.358 734.38 107.617 737.117 106.517C739.854 105.418 741.966 103.841 743.455 101.786C744.943 99.7303 746.023 97.0058 746.695 93.6122C747.367 90.2186 747.752 86.0603 747.848 81.1372C747.992 76.1663 748.064 70.2394 748.064 63.3566C748.064 56.4738 747.992 50.5709 747.848 45.6478C747.752 40.6768 747.367 36.4946 746.695 33.101C746.023 29.7074 744.943 26.983 743.455 24.9277C741.966 22.8724 739.854 21.2951 737.117 20.1958C734.428 19.0964 730.972 18.3795 726.747 18.0449C722.57 17.6625 717.408 17.4713 711.263 17.4713L669.637 17.4713C663.492 17.4713 658.306 17.6625 654.081 18.0449C649.904 18.3795 646.448 19.0964 643.711 20.1958C640.974 21.2951 638.862 22.8724 637.373 24.9277C635.885 26.983 634.805 29.7074 634.133 33.101C633.461 36.4946 633.076 40.6768 632.98 45.6478C632.884 50.5709 632.836 56.4738 632.836 63.3566C632.836 70.2394 632.884 76.1663 632.98 81.1372C633.124 86.0603 633.533 90.2186 634.205 93.6122C634.877 97.0058 635.933 99.7303 637.373 101.786C638.862 103.841 640.974 105.418 643.711 106.517C646.448 107.617 649.904 108.358 654.081 108.74C658.306 109.075 663.492 109.242 669.637 109.242H711.263Z"/>
<path d="M885.184 8.29426L901.316 8.29426L946.255 106.948L990.041 8.29426L1006.17 8.29426L955.473 118.419H937.036L893.25 22.0599L849.464 118.419L831.027 118.419L775.718 8.29426L791.85 8.29426L840.245 106.948L885.184 8.29426Z"/>
<path d="M1024.61 118.419V8.29426L1130.62 8.29426V19.7656L1038.44 19.7656V56.4738L1126.01 56.4738V67.9451H1038.44V118.419H1024.61Z"/>
<path d="M1257.37 93.182L1169.8 93.182L1155.97 118.419H1139.84L1204.36 8.29426L1222.8 8.29426L1287.33 118.419H1271.2L1257.37 93.182ZM1250.45 81.7107L1213.58 17.4713L1176.71 81.7107L1250.45 81.7107Z"/>
<path d="M1305.76 118.419V8.29426L1319.59 8.29426V106.948L1407.16 106.948V118.419L1305.76 118.419Z"/>
<path d="M1425.6 118.419V8.29426L1439.43 8.29426V106.948L1527 106.948V118.419L1425.6 118.419Z"/>
</mask>
<path d="M80.3216 56.4738C87.9074 56.4738 94.4129 56.7845 99.8382 57.4059C105.263 58.0272 109.825 58.9593 113.521 60.202C117.266 61.3969 120.243 62.9025 122.452 64.7188C124.66 66.5351 126.364 68.6143 127.565 70.9564C128.765 73.2506 129.533 75.8317 129.869 78.6995C130.253 81.5673 130.445 84.6741 130.445 88.02C130.445 91.3658 130.133 94.5204 129.509 97.4838C128.933 100.399 127.877 103.076 126.34 105.514C124.804 107.951 122.716 110.126 120.075 112.038C117.434 113.95 114.074 115.575 109.993 116.913C105.912 118.252 100.99 119.255 95.2291 119.925C89.5158 120.642 82.8182 121 75.1364 121H56.7C49.7864 121 43.7369 120.737 38.5517 120.211C33.3665 119.686 28.9014 118.897 25.1565 117.845C21.4116 116.746 18.3149 115.384 15.8663 113.759C13.4178 112.086 11.4493 110.15 9.96094 107.951C8.5206 105.705 7.51236 103.172 6.93622 100.352C6.36009 97.4838 6.07202 94.3292 6.07202 90.8878H19.8993C19.8993 95.1895 20.5234 98.5592 21.7717 100.997C23.02 103.435 25.0845 105.275 27.9652 106.517C30.8459 107.712 34.6148 108.477 39.2719 108.812C43.977 109.099 49.7864 109.242 56.7 109.242H75.1364C83.2023 109.242 89.8999 108.86 95.2291 108.095C100.558 107.33 104.807 106.111 107.976 104.438C111.145 102.765 113.377 100.591 114.674 97.914C115.97 95.1895 116.618 91.8915 116.618 88.02C116.618 84.1484 116.162 80.9221 115.25 78.341C114.386 75.76 112.633 73.7047 109.993 72.1752C107.4 70.6457 103.727 69.5702 98.974 68.9489C94.2209 68.2797 88.0034 67.9451 80.3216 67.9451L61.3091 67.9451C52.8591 67.9451 45.6094 67.6345 39.5599 67.0131C33.5585 66.3917 28.5173 65.5075 24.4364 64.3603C20.3554 63.1654 17.0906 61.7076 14.642 59.9869C12.1935 58.2184 10.321 56.2109 9.02472 53.9645C7.77642 51.718 6.96023 49.2325 6.57614 46.5081C6.19205 43.7359 6 40.7485 6 37.5461C6 34.2003 6.28807 31.0935 6.8642 28.2257C7.48835 25.3579 8.61662 22.7768 10.249 20.4825C11.8814 18.1405 14.1139 16.0613 16.9466 14.245C19.7793 12.4287 23.4041 10.9231 27.8212 9.72818C32.2862 8.48545 37.6395 7.55341 43.881 6.93204C50.1224 6.31068 57.4682 6 65.9182 6L79.7455 6C86.6591 6 92.7085 6.26288 97.8938 6.78865C103.079 7.26663 107.544 8.05528 111.289 9.15461C115.034 10.2062 118.131 11.5445 120.579 13.1696C123.076 14.7469 125.044 16.6588 126.485 18.9052C127.973 21.1039 129.005 23.6133 129.581 26.4333C130.157 29.2533 130.445 32.384 130.445 35.8254L116.618 35.8254C116.618 31.5237 115.994 28.154 114.746 25.7163C113.497 23.2787 111.433 21.4624 108.552 20.2675C105.672 19.0247 101.879 18.26 97.1736 17.9732C92.4685 17.6386 86.6591 17.4713 79.7455 17.4713L65.9182 17.4713C56.7 17.4713 49.1142 17.8059 43.1608 18.4751C37.2074 19.0964 32.5023 20.1719 29.0455 21.7014C25.5886 23.2309 23.1881 25.2862 21.8437 27.8672C20.4994 30.4483 19.8273 33.6746 19.8273 37.5461C19.8273 39.936 19.9953 42.063 20.3314 43.9271C20.6675 45.7911 21.3396 47.4401 22.3479 48.8741C23.4041 50.2602 24.8685 51.4312 26.7409 52.3872C28.6134 53.3431 31.0859 54.1318 34.1587 54.7531C37.2314 55.3745 40.9763 55.8286 45.3933 56.1153C49.8584 56.3543 55.1636 56.4738 61.3091 56.4738L80.3216 56.4738Z" stroke="black" stroke-width="2" mask="url(#path-1-outside-1_1_98)"/>
<path d="M268.718 8.29426L282.545 8.29426V118.419H268.718V67.9451L167.318 67.9451L167.318 118.419H153.491L153.491 8.29426L167.318 8.29426V56.4738L268.718 56.4738V8.29426Z" stroke="black" stroke-width="2" mask="url(#path-1-outside-1_1_98)"/>
<path d="M418.514 93.182L330.941 93.182L317.114 118.419L300.982 118.419L365.509 8.29426L383.945 8.29426L448.473 118.419H432.341L418.514 93.182ZM411.6 81.7107L374.727 17.4713L337.855 81.7107L411.6 81.7107Z" stroke="black" stroke-width="2" mask="url(#path-1-outside-1_1_98)"/>
<path d="M549.801 106.948C555.898 106.948 561.059 106.78 565.284 106.446C569.509 106.111 572.99 105.442 575.727 104.438C578.464 103.387 580.576 101.881 582.064 99.9214C583.553 97.9618 584.633 95.3807 585.305 92.1783C586.025 88.9281 586.433 84.9609 586.529 80.2768C586.673 75.5449 586.745 69.9048 586.745 63.3566C586.745 56.8084 586.673 51.1922 586.529 46.5081C586.433 41.7762 586.025 37.809 585.305 34.6066C584.633 31.3564 583.553 28.7515 582.064 26.7918C580.576 24.8321 578.464 23.3504 575.727 22.3466C572.99 21.2951 569.509 20.602 565.284 20.2675C561.107 19.9329 555.946 19.7656 549.801 19.7656L480.736 19.7656V106.948L549.801 106.948ZM466.909 118.419V8.29426L549.801 8.29426C558.251 8.29426 565.356 8.79613 571.118 9.79988C576.927 10.7558 581.704 12.2375 585.449 14.245C589.242 16.2525 592.147 18.7618 594.163 21.7731C596.228 24.7843 597.716 28.3452 598.628 32.4557C599.589 36.5185 600.141 41.1309 600.285 46.293C600.477 51.4073 600.573 57.0952 600.573 63.3566C600.573 69.618 600.477 75.3298 600.285 80.4919C600.141 85.6062 599.589 90.2186 598.628 94.3292C597.716 98.3919 596.228 101.929 594.163 104.94C592.147 107.951 589.242 110.461 585.449 112.468C581.704 114.476 576.927 115.981 571.118 116.985C565.356 117.941 558.251 118.419 549.801 118.419L466.909 118.419Z" stroke="black" stroke-width="2" mask="url(#path-1-outside-1_1_98)"/>
<path d="M711.263 6C719.713 6 726.819 6.52577 732.58 7.57731C738.389 8.58105 743.167 10.1345 746.911 12.2375C750.656 14.2928 753.537 16.8978 755.553 20.0524C757.57 23.207 759.034 26.9113 759.946 31.1652C760.907 35.4192 761.459 40.2228 761.603 45.5761C761.795 50.9293 761.891 56.8562 761.891 63.3566C761.891 69.857 761.795 75.7839 761.603 81.1372C761.459 86.4904 760.907 91.2941 759.946 95.548C759.034 99.8019 757.57 103.506 755.553 106.661C753.537 109.815 750.656 112.444 746.911 114.547C743.167 116.603 738.389 118.132 732.58 119.136C726.819 120.187 719.713 120.713 711.263 120.713H669.637C661.187 120.713 654.057 120.187 648.248 119.136C642.487 118.132 637.734 116.603 633.989 114.547C630.244 112.444 627.339 109.815 625.275 106.661C623.258 103.506 621.77 99.8019 620.81 95.548C619.897 91.2941 619.369 86.4904 619.225 81.1372C619.081 75.7839 619.009 69.857 619.009 63.3566C619.009 56.8562 619.081 50.9293 619.225 45.5761C619.369 40.2228 619.897 35.4192 620.81 31.1652C621.77 26.9113 623.258 23.207 625.275 20.0524C627.339 16.8978 630.244 14.2928 633.989 12.2375C637.734 10.1345 642.487 8.58105 648.248 7.57731C654.057 6.52577 661.187 6 669.637 6L711.263 6ZM711.263 109.242C717.36 109.242 722.498 109.075 726.675 108.74C730.9 108.358 734.38 107.617 737.117 106.517C739.854 105.418 741.966 103.841 743.455 101.786C744.943 99.7303 746.023 97.0058 746.695 93.6122C747.367 90.2186 747.752 86.0603 747.848 81.1372C747.992 76.1663 748.064 70.2394 748.064 63.3566C748.064 56.4738 747.992 50.5709 747.848 45.6478C747.752 40.6768 747.367 36.4946 746.695 33.101C746.023 29.7074 744.943 26.983 743.455 24.9277C741.966 22.8724 739.854 21.2951 737.117 20.1958C734.428 19.0964 730.972 18.3795 726.747 18.0449C722.57 17.6625 717.408 17.4713 711.263 17.4713L669.637 17.4713C663.492 17.4713 658.306 17.6625 654.081 18.0449C649.904 18.3795 646.448 19.0964 643.711 20.1958C640.974 21.2951 638.862 22.8724 637.373 24.9277C635.885 26.983 634.805 29.7074 634.133 33.101C633.461 36.4946 633.076 40.6768 632.98 45.6478C632.884 50.5709 632.836 56.4738 632.836 63.3566C632.836 70.2394 632.884 76.1663 632.98 81.1372C633.124 86.0603 633.533 90.2186 634.205 93.6122C634.877 97.0058 635.933 99.7303 637.373 101.786C638.862 103.841 640.974 105.418 643.711 106.517C646.448 107.617 649.904 108.358 654.081 108.74C658.306 109.075 663.492 109.242 669.637 109.242H711.263Z" stroke="black" stroke-width="2" mask="url(#path-1-outside-1_1_98)"/>
<path d="M885.184 8.29426L901.316 8.29426L946.255 106.948L990.041 8.29426L1006.17 8.29426L955.473 118.419H937.036L893.25 22.0599L849.464 118.419L831.027 118.419L775.718 8.29426L791.85 8.29426L840.245 106.948L885.184 8.29426Z" stroke="black" stroke-width="2" mask="url(#path-1-outside-1_1_98)"/>
<path d="M1024.61 118.419V8.29426L1130.62 8.29426V19.7656L1038.44 19.7656V56.4738L1126.01 56.4738V67.9451H1038.44V118.419H1024.61Z" stroke="black" stroke-width="2" mask="url(#path-1-outside-1_1_98)"/>
<path d="M1257.37 93.182L1169.8 93.182L1155.97 118.419H1139.84L1204.36 8.29426L1222.8 8.29426L1287.33 118.419H1271.2L1257.37 93.182ZM1250.45 81.7107L1213.58 17.4713L1176.71 81.7107L1250.45 81.7107Z" stroke="black" stroke-width="2" mask="url(#path-1-outside-1_1_98)"/>
<path d="M1305.76 118.419V8.29426L1319.59 8.29426V106.948L1407.16 106.948V118.419L1305.76 118.419Z" stroke="black" stroke-width="2" mask="url(#path-1-outside-1_1_98)"/>
<path d="M1425.6 118.419V8.29426L1439.43 8.29426V106.948L1527 106.948V118.419L1425.6 118.419Z" stroke="black" stroke-width="2" mask="url(#path-1-outside-1_1_98)"/>
</g>
<defs>
<filter id="filter0_f_1_98" x="0" y="0" width="1533" height="127" filterUnits="userSpaceOnUse" color-interpolation-filters="sRGB">
<feFlood flood-opacity="0" result="BackgroundImageFix"/>
<feBlend mode="normal" in="SourceGraphic" in2="BackgroundImageFix" result="shape"/>
<feGaussianBlur stdDeviation="2.5" result="effect1_foregroundBlur_1_98"/>
</filter>
</defs>
</svg>
