<svg width="34" height="34" viewBox="0 0 34 34" fill="none" xmlns="http://www.w3.org/2000/svg">
<path d="M28.75 33.0001L23.875 28.1667L20.2083 31.8334L19.0416 30.6667C18.4028 30.0279 18.0833 29.2362 18.0833 28.2917C18.0833 27.3473 18.4028 26.5556 19.0416 25.9167L26.0833 18.8751C26.7222 18.2362 27.5139 17.9167 28.4583 17.9167C29.4028 17.9167 30.1944 18.2362 30.8333 18.8751L32 20.0417L28.3333 23.7084L33.1666 28.5834C33.5 28.9167 33.6666 29.3056 33.6666 29.7501C33.6666 30.1945 33.5 30.5834 33.1666 30.9167L31.0833 33.0001C30.75 33.3334 30.3611 33.5001 29.9166 33.5001C29.4722 33.5001 29.0833 33.3334 28.75 33.0001ZM33.6666 6.83341L14.75 25.7501L14.9583 25.9167C15.5972 26.5556 15.9166 27.3473 15.9166 28.2917C15.9166 29.2362 15.5972 30.0279 14.9583 30.6667L13.7916 31.8334L10.125 28.1667L5.24998 33.0001C4.91665 33.3334 4.52776 33.5001 4.08331 33.5001C3.63887 33.5001 3.24998 33.3334 2.91665 33.0001L0.833313 30.9167C0.49998 30.5834 0.333313 30.1945 0.333313 29.7501C0.333313 29.3056 0.49998 28.9167 0.833313 28.5834L5.66665 23.7084L1.99998 20.0417L3.16665 18.8751C3.80554 18.2362 4.5972 17.9167 5.54165 17.9167C6.48609 17.9167 7.27776 18.2362 7.91665 18.8751L8.08331 19.0834L27 0.166748H33.6666V6.83341ZM8.58331 15.0834L0.333313 6.83341V0.166748H6.99998L15.25 8.41675L8.58331 15.0834Z" fill="black"/>
</svg>
