<svg width="19" height="20" viewBox="0 0 19 20" fill="none" xmlns="http://www.w3.org/2000/svg">
<path d="M18.8336 9.66703V10.3336C18.8336 10.7018 18.5352 11.0003 18.167 11.0003H10.5003V18.667C10.5003 19.0351 10.2018 19.3336 9.83362 19.3336H9.16702C8.79882 19.3336 8.50032 19.0351 8.50032 18.667V11.0003H0.833663C0.465473 11.0003 0.166992 10.7018 0.166992 10.3336V9.66703C0.166992 9.29883 0.465473 9.00033 0.833663 9.00033H8.50032V1.33365C8.50032 0.965463 8.79882 0.666992 9.16702 0.666992H9.83362C10.2018 0.666992 10.5003 0.965463 10.5003 1.33365V9.00033H18.167C18.5352 9.00033 18.8336 9.29883 18.8336 9.66703Z" fill="black"/>
</svg>
